<?xml version="1.0" standalone="no"?>
<!DOCTYPE svg PUBLIC "-//W3C//DTD SVG 20010904//EN"
 "http://www.w3.org/TR/2001/REC-SVG-20010904/DTD/svg10.dtd">
<svg version="1.0" xmlns="http://www.w3.org/2000/svg"
 width="2048.000000pt" height="2048.000000pt" viewBox="0 0 2048.000000 2048.000000"
 preserveAspectRatio="xMidYMid meet">
<metadata>
Created by potrace 1.16, written by Peter Selinger 2001-2019
</metadata>
<g transform="translate(0.000000,2048.000000) scale(0.100000,-0.100000)"
fill="#000000" stroke="none">
<path d="M16430 18673 c-808 -29 -1631 -163 -2469 -404 -671 -193 -1557 -531
-2456 -938 -281 -127 -668 -315 -671 -326 -4 -12 549 -335 574 -335 9 0 96 36
192 81 760 352 1578 655 2446 904 1192 344 2106 485 2882 447 688 -34 1170
-162 1542 -410 186 -124 306 -241 429 -422 133 -194 221 -413 265 -660 130
-728 -129 -1714 -736 -2804 -324 -582 -837 -1318 -1330 -1910 -60 -72 -108
-132 -108 -135 0 -8 349 -421 355 -421 13 0 405 486 621 770 629 828 1132
1696 1429 2465 442 1146 457 2124 44 2847 -220 384 -601 713 -1073 925 -66 30
-213 86 -326 123 -369 123 -693 179 -1160 200 -213 9 -273 10 -450 3z"/>
<path d="M9455 16276 c-898 -527 -1447 -882 -2233 -1443 -1113 -795 -2238
-1714 -3023 -2469 -90 -87 -165 -164 -167 -171 -3 -11 182 -259 312 -416 l39
-49 156 154 c730 720 1564 1446 2331 2029 847 644 1920 1346 2932 1920 131 74
238 137 238 140 0 7 -503 313 -531 324 -8 2 -32 -6 -54 -19z"/>
<path d="M11045 15183 c-89 -32 -139 -70 -251 -186 -150 -156 -302 -372 -377
-537 -41 -89 -114 -298 -163 -465 -53 -180 -95 -285 -154 -382 -45 -75 -63
-94 -117 -130 -75 -49 -235 -102 -398 -132 -60 -12 -135 -28 -165 -36 -81 -23
-219 -29 -350 -16 -104 10 -124 16 -209 56 -123 59 -274 148 -319 189 -54 48
-335 233 -461 303 -216 121 -332 161 -491 170 -345 19 -542 -156 -644 -572
-49 -198 -89 -521 -89 -710 0 -316 131 -1026 265 -1435 49 -151 260 -620 324
-721 l26 -42 -11 -131 c-15 -182 -14 -359 5 -479 96 -628 238 -974 510 -1243
117 -117 233 -198 395 -276 172 -84 366 -138 493 -138 29 0 56 -3 59 -6 3 -4
-9 -24 -27 -46 -43 -50 -59 -109 -54 -200 4 -93 33 -154 107 -229 80 -80 157
-114 311 -139 167 -26 457 -41 643 -33 l152 6 -46 -49 c-208 -224 -158 -543
103 -664 282 -130 643 42 724 345 25 93 10 191 -43 282 -24 41 -92 110 -128
131 -11 6 -18 12 -15 14 3 2 82 19 175 38 303 59 792 197 1068 302 490 185
868 408 1004 592 l45 61 -4 96 c-7 145 -55 236 -180 340 l-58 48 81 88 c100
108 150 178 235 324 93 160 119 222 171 399 39 136 45 170 50 280 10 235 -36
557 -112 780 -14 40 -24 74 -22 75 1 1 30 17 65 35 73 39 140 109 179 189 23
47 28 70 31 171 4 95 0 132 -17 201 -29 117 -88 231 -160 310 l-61 67 -10 113
c-5 63 -10 148 -10 191 0 165 -96 586 -184 809 -68 170 -243 529 -317 649 -28
47 -73 121 -99 166 -55 95 -198 298 -256 363 -22 25 -72 89 -111 141 -87 116
-112 143 -284 298 -216 196 -336 274 -534 347 -123 46 -215 55 -290 28z m218
-341 c195 -97 345 -211 532 -403 306 -315 470 -539 685 -939 113 -210 162
-316 232 -505 70 -190 98 -297 133 -505 14 -85 28 -162 31 -170 3 -8 12 -118
19 -245 12 -210 11 -231 -4 -243 -19 -16 -16 -35 -36 202 -22 267 -68 537
-109 651 -31 86 -67 126 -178 201 -83 57 -223 123 -234 111 -3 -2 9 -48 26
-102 17 -54 29 -100 27 -102 -2 -1 -21 22 -42 52 -21 31 -40 53 -42 51 -3 -3
2 -26 10 -53 55 -172 151 -642 135 -659 -2 -2 -42 40 -89 92 -187 213 -477
477 -714 650 -59 43 -161 120 -227 169 -65 50 -139 104 -163 120 -44 29 -45
32 -40 70 3 22 9 195 15 385 10 334 26 510 50 534 12 12 102 -30 210 -99 92
-59 284 -250 375 -373 37 -50 70 -90 73 -88 5 6 -51 122 -74 154 -16 21 -11
20 82 -14 121 -43 324 -137 381 -176 23 -15 46 -28 51 -28 13 0 -81 176 -149
280 -285 433 -794 888 -1112 994 -35 12 -53 13 -68 6 -25 -14 -24 -30 1 -30
28 0 56 -51 69 -124 5 -33 13 -178 17 -321 6 -232 4 -275 -14 -400 -12 -77
-26 -194 -33 -259 -13 -136 -7 -446 10 -489 14 -35 36 -55 196 -176 382 -288
875 -767 1150 -1116 93 -117 140 -184 134 -189 -2 -2 -44 -6 -94 -7 -83 -4
-90 -3 -93 16 -13 68 -111 252 -197 370 -87 118 -163 175 -298 223 -70 24 -79
25 -347 25 -398 1 -643 -21 -1145 -103 -585 -96 -1011 -187 -1420 -305 -436
-125 -720 -220 -952 -318 -49 -21 -83 -30 -83 -24 0 30 53 240 105 417 32 107
68 233 80 280 20 72 45 146 81 234 6 16 4 18 -10 13 -11 -4 -19 -1 -23 11 -51
152 -169 368 -265 487 -89 112 -232 254 -272 270 -45 19 -117 19 -161 1 -37
-16 -49 -45 -66 -161 -12 -82 -11 -380 1 -445 35 -185 51 -166 43 53 -8 238
16 457 52 471 23 9 41 -2 79 -48 63 -77 268 -389 329 -501 33 -60 89 -150 125
-199 l64 -88 -65 -137 c-114 -237 -206 -479 -268 -701 -34 -123 -40 -119 -84
64 -33 140 -124 416 -137 416 -5 0 -7 -12 -4 -27 3 -16 8 -86 11 -158 4 -71
15 -223 26 -337 l19 -206 -29 -59 c-34 -70 -58 -142 -67 -205 -3 -27 -11 -48
-16 -48 -17 0 -75 141 -137 331 -74 224 -146 535 -181 784 -7 44 -18 107 -26
140 -30 132 -46 322 -48 545 -1 249 14 398 61 575 31 121 103 275 143 309 64
53 173 68 275 36 17 -5 73 -21 125 -35 126 -34 298 -113 395 -181 43 -29 84
-54 91 -54 14 0 130 -78 194 -130 25 -20 64 -50 88 -65 l43 -28 -63 -41 c-35
-23 -79 -54 -99 -69 l-35 -29 100 -169 c56 -93 103 -169 106 -169 3 0 43 32
90 71 47 39 135 102 196 140 107 67 112 69 175 69 232 0 518 61 774 165 196
80 289 127 393 200 34 24 187 342 292 605 66 166 236 502 291 575 73 98 217
238 275 269 71 38 120 31 247 -32z m554 -2670 c161 -104 220 -256 225 -587 2
-159 -8 -206 -72 -340 -50 -103 -94 -153 -183 -209 -133 -83 -200 -109 -505
-197 -35 -10 -138 -30 -230 -44 -92 -14 -338 -57 -547 -95 -388 -70 -1706
-291 -1850 -309 -78 -10 -417 -44 -565 -56 -85 -7 -202 13 -253 43 -41 23 -93
92 -107 140 -24 84 -42 248 -36 322 17 208 104 425 217 545 50 53 162 125 273
175 95 42 414 140 651 199 545 136 1441 316 1795 361 47 6 182 24 300 40 288
40 398 48 635 47 l201 -2 51 -33z m428 -452 c62 -158 113 -462 101 -600 -14
-154 -77 -242 -234 -326 -119 -65 -222 -101 -387 -139 -112 -25 -153 -31 -375
-60 -69 -9 -170 -25 -225 -35 -109 -20 -167 -28 -262 -35 -35 -2 -75 -7 -90
-10 l-28 -6 25 15 25 15 -25 1 c-20 0 -22 2 -10 10 13 9 13 10 0 10 -8 0 -21
9 -28 20 -7 12 -18 18 -25 14 -7 -4 -8 -3 -4 1 4 5 13 10 20 12 7 1 30 7 52
13 22 5 137 26 255 45 406 67 685 139 803 208 124 73 250 192 306 290 78 136
91 390 35 657 -7 36 -13 72 -13 80 0 18 39 -65 84 -180z m965 91 c11 -22 29
-75 41 -118 28 -103 23 -253 -11 -326 -30 -63 -97 -121 -195 -168 -122 -59
-215 -79 -359 -78 -67 1 -134 4 -151 8 l-30 6 -11 115 c-7 63 -21 162 -33 219
-30 149 -36 137 67 144 107 8 294 47 384 80 80 29 209 101 240 134 12 13 25
23 30 23 4 0 17 -18 28 -39z m-257 -868 c45 -167 57 -240 63 -386 9 -188 -24
-485 -68 -627 -38 -121 -90 -256 -119 -306 -50 -86 -172 -255 -239 -330 -38
-43 -87 -102 -109 -130 -55 -71 -123 -129 -282 -239 -204 -141 -300 -200 -448
-271 -73 -36 -139 -71 -146 -78 -27 -27 -525 -157 -769 -202 -368 -66 -647
-95 -1001 -101 -165 -3 -298 -3 -295 0 3 3 45 12 93 21 100 17 107 20 107 45
0 23 -25 30 -89 26 -28 -2 -87 0 -133 5 -46 6 -153 15 -238 21 -203 14 -257
26 -430 94 -315 125 -467 219 -650 404 -158 158 -257 301 -340 488 -82 186
-119 364 -127 620 l-6 163 74 -34 c121 -55 151 -59 484 -53 318 5 417 15 940
97 105 16 240 36 300 45 61 9 146 23 190 31 78 14 282 47 613 99 90 14 229 32
310 40 321 31 526 55 673 81 85 14 197 30 249 34 184 16 346 59 549 144 148
63 283 179 335 289 41 87 40 86 169 81 71 -2 138 1 182 10 137 26 128 30 158
-81z m-326 -2169 c36 -77 67 -146 69 -154 3 -9 -13 -26 -43 -44 -421 -257
-603 -347 -1017 -503 -313 -117 -851 -239 -1280 -288 -186 -21 -546 -47 -564
-40 -13 5 -14 27 -9 163 4 86 10 180 13 208 l6 51 199 6 c592 19 1403 195
1930 417 166 70 405 192 534 273 49 31 91 54 93 53 2 -2 33 -66 69 -142z
m-3304 -594 c45 -5 115 -10 156 -10 l74 0 -7 -77 c-3 -43 -9 -138 -12 -211 -4
-73 -11 -135 -16 -138 -4 -3 -79 0 -166 6 -146 11 -162 14 -227 45 -98 47
-140 85 -159 143 -32 94 -18 203 29 240 21 17 39 19 135 16 61 -2 148 -8 193
-14z m1224 -548 c73 -23 127 -59 170 -113 63 -79 74 -205 27 -309 -34 -76
-122 -162 -201 -196 -32 -14 -66 -30 -76 -35 -25 -14 -33 -6 -46 45 -17 68
-14 105 10 125 14 11 23 33 26 62 5 42 3 48 -27 72 -55 47 -116 33 -144 -33
-18 -45 -5 -82 38 -105 31 -17 34 -24 40 -77 5 -41 13 -64 29 -79 l22 -21 -95
4 c-85 3 -102 8 -158 38 -73 38 -105 73 -140 149 -48 105 -17 231 84 340 119
128 290 180 441 133z"/>
<path d="M9535 10193 c-111 -13 -216 -59 -287 -126 -40 -36 -48 -50 -48 -79 0
-68 110 -138 227 -146 l61 -4 101 98 c95 92 141 157 141 198 0 9 -11 28 -25
41 -20 21 -33 25 -82 24 -32 -1 -71 -4 -88 -6z"/>
<path d="M10068 9888 c-3 -7 1 -27 9 -45 28 -69 13 -145 -40 -202 -101 -107
-292 -110 -415 -7 -35 30 -62 29 -62 -2 0 -29 -79 -112 -125 -133 -22 -10 -59
-19 -83 -19 -62 0 -100 23 -124 76 -21 48 -42 64 -60 46 -19 -19 10 -92 51
-133 36 -36 91 -59 142 -59 79 0 190 65 225 132 14 27 17 29 33 14 32 -29 112
-57 180 -63 192 -16 361 122 349 285 -2 31 -11 71 -19 87 -15 31 -54 46 -61
23z"/>
<path d="M3112 11238 c-233 -273 -471 -564 -597 -733 -79 -104 -202 -264 -274
-355 -257 -322 -643 -879 -843 -1215 -283 -474 -467 -843 -623 -1245 -38 -96
-86 -218 -107 -270 -60 -146 -181 -644 -232 -955 -52 -313 -59 -686 -17 -931
113 -665 451 -1179 1008 -1530 150 -95 464 -245 564 -269 l26 -6 7 129 c8 159
28 297 61 421 14 52 22 97 18 101 -5 4 -37 19 -73 35 -229 98 -465 268 -618
445 -262 303 -379 652 -399 1195 -11 327 36 628 157 1000 26 83 65 202 85 265
82 257 362 851 577 1225 286 499 776 1227 1023 1520 202 240 547 635 653 747
l34 36 -64 84 c-36 45 -111 151 -166 235 -56 83 -105 154 -111 157 -5 3 -45
-36 -89 -86z"/>
<path d="M15985 10676 c-176 -178 -390 -388 -475 -467 -932 -863 -1709 -1501
-2737 -2247 -699 -507 -1602 -1092 -2316 -1502 -70 -40 -130 -76 -132 -80 -2
-3 127 -84 286 -179 l289 -174 319 192 c1056 634 2010 1296 2921 2025 516 414
843 694 1345 1155 221 203 1165 1145 1165 1162 0 11 -327 433 -338 436 -4 1
-151 -143 -327 -321z"/>
<path d="M8980 5676 c-151 -74 -320 -154 -375 -179 -55 -25 -172 -77 -260
-117 -1213 -546 -2409 -935 -3445 -1119 l-205 -37 5 -94 c3 -52 5 -186 5 -297
0 -198 0 -203 20 -203 12 0 110 16 219 35 869 154 1882 455 2876 853 636 255
1042 438 1702 768 243 121 289 148 277 159 -30 27 -522 365 -533 365 -7 0
-135 -60 -286 -134z"/>
<path d="M3235 4720 c-200 -32 -398 -137 -529 -282 -125 -138 -183 -321 -193
-611 -6 -175 5 -249 57 -363 84 -186 266 -354 463 -429 190 -71 427 -74 621
-6 225 79 420 263 515 488 27 63 32 88 41 225 6 101 6 195 -1 278 -9 114 -13
132 -49 207 -22 46 -53 103 -70 128 -114 165 -297 291 -505 347 -82 22 -265
31 -350 18z m153 -121 c114 -56 133 -213 37 -298 -32 -28 -89 -51 -126 -51
-23 0 -125 -69 -194 -132 -83 -75 -114 -95 -168 -108 -114 -29 -220 73 -204
195 14 101 86 197 211 280 94 62 130 79 236 111 95 29 152 30 208 3z"/>
</g>
</svg>
